<?xml version="1.0" encoding="utf-8"?>
<?xml-stylesheet type="text/xsl" href="rss1.xsl"?>
<rss version="2.0" xmlns:atom="http://www.w3.org/2005/Atom" xmlns:content="http://purl.org/rss/1.0/modules/content/" xmlns:dc="http://purl.org/dc/elements/1.1/" xmlns:media="http://search.yahoo.com/mrss/">
<channel>
 <title>Getty</title>
 <link>http://www.gettyimg.com/</link>
 <atom:link href="http://www.gettyimg.com/" rel="self" type="application/rss+xml" />

 
                <item>
                <title><![CDATA[【Requests】[REQ VID] - Van Helsing: The London Assignment (Animated) HD or DVDrip]]></title>
                <link><![CDATA[https://sharemania.us/threads/van-helsing-the-london-assignment-animated-hd-or-dvdrip.233919/]]></link>
                <description><![CDATA[<article>
<blockquote class="messageText SelectQuoteContainer ugc baseHtml">
I would like the best quality possible
<div class="messageTextEndMarker">&nbsp;</div>
</blockquote>
</article>]]></description>
                <author><![CDATA[Prcardo]]></author>
                </item>

                
                <item>
                <title><![CDATA[【HD Live Performances】WEB-RiP - Taylor Swift - The Eras Tour, SoFi Stadium, Inglewood, CA, USA, 2023 [fixed song order + extra stereo track + bonus audio bootleg]]]></title>
                <link><![CDATA[https://sharemania.us/threads/taylor-swift-the-eras-tour-sofi-stadium-inglewood-ca-usa-2023-fixed-song-order-extra-stereo-track-bonus-audio-bootleg.233917/]]></link>
                <description><![CDATA[<article>
<blockquote class="messageText SelectQuoteContainer ugc baseHtml">
I moved the 3 bonus songs (The Archer, Long Live, Wildest Dreams) where they belong among the other songs, without re-encoding the whole thing! I also added an extra stereo track converted from the main 5.1 audio. I dropped the disclaimer section. I also added very precise chapters for each song, a cover and an info file. The main tool I used was MKV Toolnix.<b><br>
<br>
Bonus content: I made an audio bootleg with this entire show!</b> (I split the tracks into songs, added tags, added cover).<br>
<br>
This is an essential release for any pop fan. Credits to FLUX who recorded and shared this whole thing in the first place. Credits to Tay Tay and her team for making such an incredible show. Perhaps the biggest pop show of all time!<br>
<br>
<img src="https://i.postimg.cc/hjJN3cRM/Taylor-Swift-The-Eras-Tour-So-Fi-Stadium-Inglewood-CA-USA-2023-mkv.jpg" class="bbCodeImage LbImage" alt="[​IMG]" data-url="https://i.postimg.cc/hjJN3cRM/Taylor-Swift-The-Eras-Tour-So-Fi-Stadium-Inglewood-CA-USA-2023-mkv.jpg" style=""><br>
<br>
Setlist:<br>
1. Miss Americana &amp; the Heartbreak Prince<br>
2. Cruel Summer<br>
3. The Man<br>
4. You Need to Calm Down<br>
5. Lover<br>
6. The Archer<br>
<br>
7. Fearless<br>
8. You Belong With Me<br>
9. Love Story<br>
<br>
10. (No Body, No Crime)<br>
11. Willow<br>
12. Marjorie<br>
13. Champagne Problems<br>
14. Tolerate It<br>
<br>
15. ...Ready for It?<br>
16. Delicate<br>
17. Don't Blame Me<br>
18. Look What You Made Me Do<br>
<br>
19. Enchanted<br>
20. Long Live<br>
<br>
21. 22<br>
22. We Are Never Ever Getting Back Together<br>
23. I Knew You Were Trouble<br>
24. All Too Well<br>
<br>
25. The 1<br>
26. Betty<br>
27. The Last Great American Dynasty<br>
28. August<br>
29. Illicit Affairs<br>
30. My Tears Ricochet<br>
31. (Cardigan)<br>
<br>
32. Style<br>
33. Blank Space<br>
34. Shake It Off<br>
35. Wildest Dreams<br>
36. Bad Blood<br>
<br>
37. Our Song<br>
38. You're on Your Own, Kid<br>
<br>
39. Lavender Haze<br>
40. Anti-Hero<br>
41. Midnight Rain<br>
42. Vigilante Shit<br>
43. Bejeweled<br>
44. Mastermind<br>
45. Karma<br>
<br>
MediaInfo:<br>
<div class="ToggleTriggerAnchor bbCodeSpoilerContainer">
<button type="button" class="button bbCodeSpoilerButton ToggleTrigger Tooltip JsOnly" data-target="> .SpoilerTarget"><span>Spoiler</span></button>
<div class="SpoilerTarget bbCodeSpoilerText">General<br>
Unique ID : 216798372327729618019242719439182489724 (0xA319D903EB16BFF0CB947498EC39E87C)<br>
Complete name : E:\Concerts (M-Z)\Taylor Swift - The Eras Tour, SoFi Stadium, Inglewood, CA, USA, 2023\Taylor Swift - The Eras Tour, SoFi Stadium, Inglewood, CA, USA, 2023.mkv<br>
Format : Matroska<br>
Format version : Version 4<br>
File size : 13.2 GiB<br>
Duration : 3 h 0 min<br>
Overall bit rate : 10.5 Mb/s<br>
Frame rate : 23.976 FPS<br>
Encoded date : 2023-12-13 19:49:38 UTC<br>
Writing application : mkvmerge v80.0 ('Roundabout') 64-bit<br>
Writing library : libebml v1.4.4 + libmatroska v1.7.1 / Lavf59.16.100<br>
<br>
Video<br>
ID : 1<br>
Format : AVC<br>
Format/Info : Advanced Video Codec<br>
Format profile : High@L4<br>
Format settings : CABAC / 4 Ref Frames<br>
Format settings, CABAC : Yes<br>
Format settings, Reference frames : 4 frames<br>
Codec ID : V_MPEG4/ISO/AVC<br>
Duration : 3 h 0 min<br>
Bit rate mode : Constant<br>
Bit rate : 9 470 kb/s<br>
Nominal bit rate : 10 000 kb/s<br>
Width : 1 920 pixels<br>
Height : 800 pixels<br>
Display aspect ratio : 2.40:1<br>
Frame rate mode : Constant<br>
Frame rate : 23.976 (23976/1000) FPS<br>
Original frame rate : 23.976 (24000/1001) FPS<br>
Color space : YUV<br>
Chroma subsampling : 4:2:0<br>
Bit depth : 8 bits<br>
Scan type : Progressive<br>
Bits/(Pixel*Frame) : 0.257<br>
Stream size : 11.9 GiB (90%)<br>
Default : Yes<br>
Forced : No<br>
Color range : Limited<br>
Color primaries : BT.709<br>
Transfer characteristics : BT.709<br>
Matrix coefficients : BT.709<br>
<br>
Audio #1<br>
ID : 2<br>
Format : E-AC-3 JOC<br>
Format/Info : Enhanced AC-3 with Joint Object Coding<br>
Commercial name : Dolby Digital Plus with Dolby Atmos<br>
Codec ID : A_EAC3<br>
Duration : 3 h 0 min<br>
Bit rate mode : Constant<br>
Bit rate : 768 kb/s<br>
Channel(s) : 6 channels<br>
Channel layout : L R C LFE Ls Rs<br>
Sampling rate : 48.0 kHz<br>
Frame rate : 31.250 FPS (1536 SPF)<br>
Compression mode : Lossy<br>
Delay relative to video : 57 ms<br>
Stream size : 991 MiB (7%)<br>
Language : English<br>
Service kind : Complete Main<br>
Default : Yes<br>
Forced : No<br>
Complexity index : 16<br>
Number of dynamic objects : 15<br>
Bed channel count : 1 channel<br>
Bed channel configuration : LFE<br>
<br>
Audio #2<br>
ID : 3<br>
Format : AAC LC<br>
Format/Info : Advanced Audio Codec Low Complexity<br>
Codec ID : A_AAC-2<br>
Duration : 3 h 0 min<br>
Bit rate : 227 kb/s<br>
Channel(s) : 2 channels<br>
Channel layout : L R<br>
Sampling rate : 48.0 kHz<br>
Frame rate : 46.875 FPS (1024 SPF)<br>
Compression mode : Lossy<br>
Delay relative to video : 36 ms<br>
Stream size : 293 MiB (2%)<br>
Language : English<br>
Default : No<br>
Forced : No<br>
<br>
Text #1<br>
ID : 4<br>
Format : UTF-8<br>
Codec ID : S_TEXT/UTF8<br>
Codec ID/Info : UTF-8 Plain Text<br>
Duration : 3 h 0 min<br>
Bit rate : 74 b/s<br>
Frame rate : 0.251 FPS<br>
Count of elements : 2712<br>
Stream size : 98.3 KiB (0%)<br>
Language : English (US)<br>
Default : No<br>
Forced : No<br>
<br>
Text #2<br>
ID : 5<br>
Format : UTF-8<br>
Codec ID : S_TEXT/UTF8<br>
Codec ID/Info : UTF-8 Plain Text<br>
Duration : 3 h 0 min<br>
Bit rate : 80 b/s<br>
Frame rate : 0.271 FPS<br>
Count of elements : 2927<br>
Stream size : 107 KiB (0%)<br>
Title : SDH<br>
Language : English (US)<br>
Default : No<br>
Forced : No<br>
<br>
Text #3<br>
ID : 6<br>
Format : UTF-8<br>
Codec ID : S_TEXT/UTF8<br>
Codec ID/Info : UTF-8 Plain Text<br>
Duration : 2 h 52 min<br>
Bit rate : 5 b/s<br>
Frame rate : 0.013 FPS<br>
Count of elements : 134<br>
Stream size : 6.59 KiB (0%)<br>
Language : German (DE)<br>
Default : No<br>
Forced : No<br>
<br>
Text #4<br>
ID : 7<br>
Format : UTF-8<br>
Codec ID : S_TEXT/UTF8<br>
Codec ID/Info : UTF-8 Plain Text<br>
Duration : 2 h 58 min<br>
Bit rate : 4 b/s<br>
Frame rate : 0.012 FPS<br>
Count of elements : 128<br>
Stream size : 6.38 KiB (0%)<br>
Title : Latin American<br>
Language : Spanish (Latin America)<br>
Default : No<br>
Forced : No<br>
<br>
Text #5<br>
ID : 8<br>
Format : UTF-8<br>
Codec ID : S_TEXT/UTF8<br>
Codec ID/Info : UTF-8 Plain Text<br>
Duration : 2 h 58 min<br>
Bit rate : 4 b/s<br>
Frame rate : 0.012 FPS<br>
Count of elements : 133<br>
Stream size : 5.40 KiB (0%)<br>
Title : Brazilian<br>
Language : Portuguese (BR)<br>
Default : No<br>
Forced : No<br>
<br>
Menu<br>
00:00:00.000 : en:Miss Americana &amp; the Heartbreak Prince<br>
00:02:43.700 : en:Cruel Summer<br>
00:06:34.000 : en:Stage Banter<br>
00:09:15.000 : en:The Man<br>
00:12:34.000 : en:You Need to Calm Down<br>
00:14:20.000 : en:Lover<br>
00:19:54.500 : en:The Archer<br>
00:23:44.500 : en:Fearless<br>
00:26:44.000 : en:You Belong With Me<br>
00:30:50.000 : en:Love Story<br>
00:34:49.000 : en:Willow<br>
00:39:46.000 : en:Marjorie<br>
00:42:58.000 : en:Champagne Problems Intro<br>
00:45:26.000 : Champagne Problems<br>
00:50:39.000 : en:Tolerate It<br>
00:54:46.300 : en:...Ready for It?<br>
00:59:00.500 : en<img src="styles/default/xenforo/smilies/exciting-48.png" class="mceSmilie" alt=":D" title="Big Grin    :D">elicate<br>
01:02:57.000 : en<img src="styles/default/xenforo/smilies/exciting-48.png" class="mceSmilie" alt=":D" title="Big Grin    :D">on't Blame Me<br>
01:06:04.300 : en:Look What You Made Me Do<br>
01:10:06.000 : en:Enchanted<br>
01:14:31.600 : en:Long Live<br>
01:20:13.900 : en:22<br>
01:24:14.300 : en:We Are Never Ever Getting Back Together<br>
01:27:33.000 : en:I Knew You Were Trouble<br>
01:30:02.000 : en:All Too Well (10 Minute Version) Intro<br>
01:30:47.000 : All Too Well (10 Minute Version)<br>
01:40:30.800 : en:The 1<br>
01:44:19.000 : en:Betty Intro<br>
01:46:20.000 : Betty<br>
01:51:09.000 : en:The Last Great American Dynasty<br>
01:54:58.000 : en:August<br>
01:58:28.000 : en:Illicit Affairs<br>
02:00:15.500 : en:My Tears Ricochet<br>
02:04:20.000 : en:Style<br>
02:06:59.500 : en:Blank Space<br>
02:11:14.000 : en:Shake It Off<br>
02:14:53.200 : en:Wildest Dreams<br>
02:17:20.000 : en:Bad Blood<br>
02:19:49.000 : en:Our Song Intro<br>
02:21:08.600 : Our Song<br>
02:24:48.000 : en:You're on Your Own, Kid<br>
02:28:21.700 : en:Stage Diving<br>
02:29:08.000 : en:Lavender Haze<br>
02:33:23.700 : en:Anti-Hero<br>
02:36:51.000 : en:Midnight Rain<br>
02:39:39.500 : en:Vigilante Shit<br>
02:42:31.500 : en:Bejeweled<br>
02:45:55.000 : en:Mastermind<br>
02:49:18.000 : en:Karma<br>
02:55:06.300 : en:End Credits</div>
</div><br>
<div class="bbCodeBlock bbCodeVfcHH HiddenContent">
<div class="attribution type">Hidden Content:</div>
<blockquote>You must reply before you can see the hidden data contained here.</blockquote>
</div>
<div class="messageTextEndMarker">&nbsp;</div>
</blockquote>
</article>]]></description>
                <author><![CDATA[caladan]]></author>
                </item>

                
                <item>
                <title><![CDATA[【Requests】[REQ AUD] - Remy Ma - There's Something About Remy-Based On A True Story]]></title>
                <link><![CDATA[https://sharemania.us/threads/remy-ma-theres-something-about-remy-based-on-a-true-story.233918/]]></link>
                <description><![CDATA[<article>
<blockquote class="messageText SelectQuoteContainer ugc baseHtml">
obrigada
<div class="messageTextEndMarker">&nbsp;</div>
</blockquote>
</article>]]></description>
                <author><![CDATA[migsou]]></author>
                </item>

                </channel></rss>